<svg width="13" height="8" viewBox="0 0 13 8" fill="none" xmlns="http://www.w3.org/2000/svg">
<path d="M12.457 1.74042L6.69743 7.69995L0.937877 1.74042C0.781412 1.57798 0.695881 1.36005 0.7001 1.13455C0.704319 0.909058 0.797943 0.694475 0.960376 0.538009C1.12281 0.381544 1.34074 0.296013 1.56624 0.300232C1.79173 0.304451 2.00632 0.398075 2.16278 0.560508L6.69743 5.25514L11.2371 0.560508C11.3935 0.398075 11.6081 0.304451 11.8336 0.300232C12.0591 0.296013 12.277 0.381544 12.4395 0.538009C12.6019 0.694475 12.6955 0.909058 12.6998 1.13455C12.704 1.36005 12.6184 1.57798 12.462 1.74042H12.457Z" fill="#9D9D9D"/>
</svg>
