<svg width="44" height="46" viewBox="0 0 44 46" fill="none" xmlns="http://www.w3.org/2000/svg">
<g clip-path="url(#clip0_71_2)">
<path d="M21.7895 0C17.4799 0 13.2671 1.32244 9.68387 3.80008C6.10061 6.27772 3.3078 9.79928 1.6586 13.9194C0.00941047 18.0396 -0.422094 22.5733 0.418658 26.9473C1.25941 31.3212 3.33466 35.3389 6.38197 38.4924C9.42928 41.6458 13.3118 43.7933 17.5385 44.6634C21.7653 45.5334 26.1464 45.0869 30.1279 43.3802C34.1094 41.6736 37.5125 38.7835 39.9067 35.0755C42.301 31.3674 43.5789 27.0079 43.5789 22.5483C43.5789 16.5681 41.2833 10.8329 37.1969 6.60425C33.1106 2.37562 27.5684 0 21.7895 0V0ZM27.988 14.6742C27.988 15.0985 27.816 15.2676 27.4146 15.2676C26.6433 15.2676 25.8721 15.2676 25.1037 15.3002C24.3354 15.3329 23.9168 15.6948 23.9168 16.5255C23.8996 17.4156 23.9168 18.2879 23.9168 19.1957H27.2167C27.6869 19.1957 27.8475 19.3619 27.8475 19.8514C27.8475 21.0382 27.8475 22.2309 27.8475 23.4295C27.8475 23.9131 27.6984 24.0644 27.2254 24.0674H23.8881V33.7216C23.8881 34.2378 23.7333 34.401 23.2402 34.401H19.6506C19.2177 34.401 19.0486 34.226 19.0486 33.778V24.0822H16.1987C15.7515 24.0822 15.5909 23.9131 15.5909 23.4473C15.5909 22.2467 15.5909 21.0471 15.5909 19.8484C15.5909 19.3856 15.7601 19.2106 16.2016 19.2106H19.0486V16.6145C19.0148 15.4484 19.2851 14.2944 19.8313 13.2738C20.399 12.2435 21.3087 11.4612 22.3915 11.0724C23.0943 10.8078 23.837 10.6752 24.5848 10.6808H27.4031C27.8074 10.6808 27.9765 10.8647 27.9765 11.2742C27.9908 12.4164 27.9909 13.5468 27.988 14.6742V14.6742Z" fill="white"/>
</g>
<defs>
<clipPath id="clip0_71_2">
<rect width="43.5789" height="45.0966" fill="white"/>
</clipPath>
</defs>
</svg>
