<svg width="47" height="48" viewBox="0 0 47 48" fill="none" xmlns="http://www.w3.org/2000/svg">
<g clip-path="url(#clip0_71_6)">
<path d="M27.6304 23.801C27.6304 26.3171 25.6595 28.3567 23.2281 28.3567C20.7967 28.3567 18.8257 26.3171 18.8257 23.801C18.8257 21.2849 20.7967 19.2454 23.2281 19.2454C25.6595 19.2454 27.6304 21.2849 27.6304 23.801Z" fill="white"/>
<path d="M33.5236 15.7407C33.312 15.1473 32.9744 14.6101 32.5357 14.1692C32.1096 13.7153 31.5909 13.3659 31.0171 13.1469C30.5518 12.9599 29.8527 12.7372 28.565 12.6766C27.1721 12.6108 26.7545 12.5967 23.2281 12.5967C19.7014 12.5967 19.2837 12.6105 17.8912 12.6762C16.6035 12.7372 15.9041 12.9599 15.4391 13.1469C14.8652 13.3659 14.3462 13.7153 13.9205 14.1692C13.4818 14.6101 13.1442 15.1469 12.9322 15.7407C12.7515 16.2222 12.5363 16.9461 12.4777 18.2785C12.4142 19.7196 12.4005 20.1518 12.4005 23.8013C12.4005 27.4505 12.4142 27.8827 12.4777 29.3241C12.5363 30.6566 12.7515 31.3801 12.9322 31.8616C13.1442 32.4554 13.4814 32.9922 13.9201 33.4331C14.3462 33.8871 14.8649 34.2364 15.4387 34.4554C15.9041 34.6428 16.6035 34.8654 17.8912 34.9261C19.2837 34.9918 19.701 35.0056 23.2277 35.0056C26.7548 35.0056 27.1724 34.9918 28.5647 34.9261C29.8523 34.8654 30.5518 34.6428 31.0171 34.4554C32.1689 33.9956 33.0793 33.0536 33.5236 31.8616C33.7044 31.3801 33.9195 30.6566 33.9785 29.3241C34.042 27.8827 34.0553 27.4505 34.0553 23.8013C34.0553 20.1518 34.042 19.7196 33.9785 18.2785C33.9198 16.9461 33.7047 16.2222 33.5236 15.7407V15.7407ZM23.2281 30.819C19.4824 30.819 16.4459 27.6771 16.4459 23.801C16.4459 19.9248 19.4824 16.783 23.2281 16.783C26.9734 16.783 30.0099 19.9248 30.0099 23.801C30.0099 27.6771 26.9734 30.819 23.2281 30.819ZM30.278 18.1456C29.4027 18.1456 28.6931 17.4113 28.6931 16.5055C28.6931 15.5998 29.4027 14.8654 30.278 14.8654C31.1533 14.8654 31.8629 15.5998 31.8629 16.5055C31.8626 17.4113 31.1533 18.1456 30.278 18.1456Z" fill="white"/>
<path d="M23.2281 0C10.5275 0 0.228069 10.6581 0.228069 23.801C0.228069 36.9439 10.5275 47.602 23.2281 47.602C35.9287 47.602 46.2281 36.9439 46.2281 23.801C46.2281 10.6581 35.9287 0 23.2281 0ZM36.3554 29.4356C36.2916 30.8905 36.068 31.8838 35.7416 32.7532C35.0555 34.5891 33.6531 36.0403 31.879 36.7503C31.0392 37.0881 30.079 37.3191 28.6734 37.3855C27.2651 37.452 26.8152 37.468 23.2284 37.468C19.6413 37.468 19.1918 37.452 17.783 37.3855C16.3775 37.3191 15.4173 37.0881 14.5775 36.7503C13.6959 36.4071 12.8978 35.8693 12.238 35.1738C11.5663 34.4914 11.0465 33.6652 10.7149 32.7532C10.3885 31.8842 10.1649 30.8905 10.1011 29.436C10.0361 27.9782 10.021 27.5126 10.021 23.801C10.021 20.0894 10.0361 19.6238 10.1007 18.1663C10.1646 16.7115 10.3878 15.7182 10.7142 14.8487C11.0458 13.9368 11.5659 13.1106 12.238 12.4282C12.8974 11.7327 13.6959 11.1948 14.5771 10.8516C15.4173 10.5139 16.3771 10.2829 17.783 10.2165C19.1914 10.15 19.6413 10.134 23.2281 10.134C26.8148 10.134 27.2647 10.15 28.6731 10.2168C30.079 10.2829 31.0389 10.5139 31.879 10.8513C32.7603 11.1945 33.5587 11.7327 34.2185 12.4282C34.8902 13.111 35.4103 13.9368 35.7416 14.8487C36.0684 15.7182 36.2916 16.7115 36.3558 18.1663C36.42 19.6238 36.4351 20.0894 36.4351 23.801C36.4351 27.5126 36.42 27.9782 36.3554 29.4356V29.4356Z" fill="white"/>
</g>
<defs>
<clipPath id="clip0_71_6">
<rect width="46" height="47.602" fill="white" transform="translate(0.228069)"/>
</clipPath>
</defs>
</svg>
