<svg width="47" height="48" viewBox="0 0 47 48" fill="none" xmlns="http://www.w3.org/2000/svg">
<g clip-path="url(#clip0_71_10)">
<path d="M23.8772 0C11.195 0 0.87719 10.6772 0.87719 23.801C0.87719 36.9238 11.195 47.602 23.8772 47.602C36.5584 47.602 46.8772 36.9238 46.8772 23.801C46.8772 10.6772 36.5603 0 23.8772 0ZM34.1376 18.3536C34.1478 18.5894 34.1534 18.8272 34.1534 19.065C34.1534 26.3042 28.83 34.6488 19.0902 34.6488C16.1006 34.6488 13.3175 33.7448 10.9755 32.1897C11.3896 32.2405 11.8111 32.2664 12.2382 32.2664C14.7193 32.2664 17.0011 31.3902 18.8132 29.9214C16.4971 29.8773 14.5414 28.2935 13.8678 26.1163C14.1903 26.1796 14.5228 26.215 14.8629 26.215C15.3455 26.215 15.8143 26.1498 16.2581 26.0242C13.8363 25.5219 12.0122 23.3082 12.0122 20.6526C12.0122 20.6296 12.0122 20.6056 12.0131 20.5836C12.7265 20.9929 13.5427 21.2403 14.4098 21.2681C12.9905 20.2873 12.0557 18.6096 12.0557 16.7094C12.0557 15.7047 12.316 14.7632 12.7719 13.9541C15.3817 17.2693 19.2839 19.4494 23.6826 19.6795C23.5918 19.2778 23.5464 18.8607 23.5464 18.4303C23.5464 15.4055 25.9163 12.9522 28.8392 12.9522C30.3623 12.9522 31.7363 13.6176 32.7035 14.6817C33.9106 14.4363 35.0409 13.9819 36.0665 13.352C35.6681 14.6319 34.8315 15.7047 33.7355 16.3834C34.8074 16.2511 35.8302 15.9578 36.7761 15.5216C36.0702 16.6183 35.1724 17.5837 34.1376 18.3536V18.3536Z" fill="white"/>
</g>
<defs>
<clipPath id="clip0_71_10">
<rect width="46" height="47.602" fill="white" transform="translate(0.87719)"/>
</clipPath>
</defs>
</svg>
